PathFileType	4	(X/Y/Z)	/Users/itak/Documents/Research/Walk-IL/dataset/trc/00364_00011.trc
DataRate	CameraRate	NumFrames	NumMarkers	Units	OrigDataRate	OrigDataStartFrame	OrigNumFrames
100.000000	100.000000	4	56	mm	100.000000	153	306
Frame#	Time	RPSI			LPSI			L3			STRN			T10			C7			CLAV			RBAK			LBAK			LSHO			LUPA			LAEL			LAOL			LWTS			LWPS			LFRA			LIFD			LHPS			LHTS			RSHO			RUPA			RAEL			RAOL			RWTS			RWPS			RFRA			RIFD			RHTS			RHPS			RBHD			LFHD			RFHD			LBHD			LHIP			RHIP			RASI			LASI			LKNE			LTHI			LANK			LTIP			LTOE			LMT1			LMT5			LHEE			RKNE			RTHI			RANK			RTIP			RTOE			RMT1			RMT5			RHEE			*53			*54			*55			
		X1	Y1	Z1	X2	Y2	Z2	X3	Y3	Z3	X4	Y4	Z4	X5	Y5	Z5	X6	Y6	Z6	X7	Y7	Z7	X8	Y8	Z8	X9	Y9	Z9	X10	Y10	Z10	X11	Y11	Z11	X12	Y12	Z12	X13	Y13	Z13	X14	Y14	Z14	X15	Y15	Z15	X16	Y16	Z16	X17	Y17	Z17	X18	Y18	Z18	X19	Y19	Z19	X20	Y20	Z20	X21	Y21	Z21	X22	Y22	Z22	X23	Y23	Z23	X24	Y24	Z24	X25	Y25	Z25	X26	Y26	Z26	X27	Y27	Z27	X28	Y28	Z28	X29	Y29	Z29	X30	Y30	Z30	X31	Y31	Z31	X32	Y32	Z32	X33	Y33	Z33	X34	Y34	Z34	X35	Y35	Z35	X36	Y36	Z36	X37	Y37	Z37	X38	Y38	Z38	X39	Y39	Z39	X40	Y40	Z40	X41	Y41	Z41	X42	Y42	Z42	X43	Y43	Z43	X44	Y44	Z44	X45	Y45	Z45	X46	Y46	Z46	X47	Y47	Z47	X48	Y48	Z48	X49	Y49	Z49	X50	Y50	Z50	X51	Y51	Z51	X52	Y52	Z52	X53	Y53	Z53	X54	Y54	Z54	X55	Y55	Z55	X56	Y56	Z56	

154	1.53	383.9850158691406	955.0572509765625	121.9135513305664	254.4157257080078	956.5706787109375	104.3639755249023	316.9730529785156	1021.245483398438	120.3235473632812	341.1749877929688	1206.72607421875	-110.3808517456055	301.0181579589844	1139.348754882812	123.8205642700195	294.4341125488281	1388.11181640625	84.39144134521484	330.2531127929688	1331.878295898438	-67.58267974853516	346.9986572265625	1248.357788085938	143.9504852294922	191.4382171630859	1352.091186523438	76.59284210205078	154.0859527587891	1370.250610351562	-18.28632926940918	82.35566711425781	1251.223266601562	-25.2619571685791	71.04359436035156	1055.263549804688	-85.41032409667969	103.4924011230469	1024.523071289062	-11.56670570373535	182.0412902832031	887.0578002929688	-243.6631317138672	120.3942337036133	855.3446655273438	-236.7395782470703	81.37733459472656	966.1031494140625	-137.0547485351562	215.6212615966797	753.5650634765625	-327.2778930664062	137.6858825683594	794.9041748046875	-266.1854553222656	185.0575103759766	827.191162109375	-295.0443420410156	464.3435363769531	1371.328247070312	62.28056335449219	518.5139770507812	1307.103393554688	91.55747222900391	554.486328125	1044.511352539062	128.2953948974609	461.0315551757812	1035.470092773438	123.8460388183594	576.1925048828125	805.68017578125	41.63922119140625	616.3470458984375	799.9137573242188	107.0642700195312	576.6932373046875	977.4576416015625	119.2541732788086	586.5493774414062	631.522216796875	62.57580947875977	598.1824951171875	701.8590087890625	40.49494934082031	619.3649291992188	713.0924072265625	105.0833587646484	390.9121398925781	1583.132080078125	66.011474609375	279.1413269042969	1620.667602539062	-105.9029693603516	379.1407775878906	1622.4189453125	-91.78977966308594	247.2447814941406	1571.901977539062	71.35567474365234	161.6735687255859	901.0247802734375	3.629343271255493	498.3424987792969	908.758544921875	49.230712890625	465.7987670898438	943.9539184570312	-55.809326171875	233.7153167724609	932.2823486328125	-108.4868621826172	250.8069152832031	444.6431274414062	-40.99222564697266	220.9311981201172	582.919189453125	-44.08499526977539	268.972412109375	48.47512435913086	113.6779708862305	258.1507263183594	227.7633819580078	26.96701812744141	395.9281311035156	37.13084030151367	-60.34505462646484	406.5787658691406	23.29433631896973	21.28586578369141	301.4862365722656	42.60935211181641	-6.796060085296631	320.2650756835938	44.99523544311523	169.0132141113281	540.9698486328125	498.8962707519531	-159.6282653808594	538.8905639648438	739.9380493164062	-88.96305847167969	552.5049438476562	84.97971343994141	-43.32646560668945	549.7943725585938	377.5576171875	-156.6563262939453	578.2236328125	58.03905487060547	-237.9499053955078	517.7040405273438	53.88287353515625	-202.2774047851562	607.3408203125	58.22646713256836	-125.5759963989258	489.536865234375	91.6236572265625	-15.18619728088379	nan	nan	nan	nan	nan	nan	nan	nan	nan	
155	1.54	389.6885375976562	954.1864013671875	113.438720703125	259.8590393066406	955.7371826171875	97.9952392578125	322.48828125	1020.956726074219	114.6436309814453	343.3832092285156	1205.629272460938	-117.914436340332	305.5606994628906	1138.485717773438	116.9185562133789	298.4039001464844	1387.093872070312	77.10552215576172	332.9335021972656	1330.81591796875	-75.06625366210938	351.5673217773438	1247.344116210938	136.2599334716797	195.3489837646484	1351.08837890625	70.13864898681641	157.2357025146484	1369.410400390625	-24.36908149719238	85.49654388427734	1250.367553710938	-31.5883674621582	74.24845886230469	1054.958862304688	-93.92536926269531	106.923942565918	1023.300659179688	-20.59710884094238	186.47412109375	890.6732788085938	-255.2465057373047	125.3287963867188	858.0487670898438	-248.6581878662109	85.13031005859375	966.7288208007812	-146.9561004638672	221.5996551513672	758.9998168945312	-341.2111511230469	142.9615325927734	798.3712158203125	-279.2367553710938	190.1225738525391	831.7109375	-307.6269836425781	468.1436157226562	1370.287963867188	53.61933135986328	522.510009765625	1306.19677734375	82.69126892089844	557.9552001953125	1043.797729492188	120.8204345703125	464.494384765625	1035.0244140625	117.0522842407227	578.0440673828125	803.7240600585938	36.77921295166016	619.002685546875	798.9483642578125	101.6955032348633	579.94287109375	976.6767578125	112.218376159668	588.1260986328125	629.9834594726562	59.95833206176758	599.781982421875	699.8936157226562	36.71755981445312	621.6598510742188	711.975830078125	100.9872207641602	394.6270141601562	1581.962158203125	58.20603561401367	281.9355163574219	1619.653686523438	-113.0778732299805	382.0620422363281	1621.460083007812	-99.53547668457031	251.0281524658203	1570.687377929688	64.28704833984375	165.322265625	900.26318359375	-1.164942026138306	502.439697265625	907.4613647460938	39.0880126953125	469.4541015625	944.1614990234375	-66.58758544921875	235.6441802978516	931.4603881835938	-114.4812927246094	252.5075836181641	443.96630859375	-44.56882476806641	223.061767578125	582.2286376953125	-47.98470306396484	269.4514770507812	48.74826431274414	113.6388244628906	259.3785400390625	227.5132751464844	25.23700904846191	395.9211730957031	37.02301406860352	-60.55526351928711	407.2833251953125	24.22058296203613	21.35962677001953	301.775390625	42.67831802368164	-6.862809658050537	320.7054443359375	45.49352264404297	168.9980926513672	542.587158203125	497.3815307617188	-170.8759613037109	540.8184204101562	739.2352905273438	-99.94577026367188	561.9071044921875	78.08873748779297	-77.43209838867188	553.0065307617188	376.2906188964844	-173.8851623535156	582.8585205078125	62.00984191894531	-273.6844482421875	523.290283203125	55.25912857055664	-236.860107421875	614.8734130859375	56.37368011474609	-162.3526611328125	499.5519409179688	82.55454254150391	-47.37018966674805	nan	nan	nan	nan	nan	nan	nan	nan	nan	
156	1.55	395.2786254882812	953.1742553710938	104.7451858520508	265.239013671875	954.8425903320312	91.43268585205078	327.9798889160156	1020.650939941406	109.0034484863281	345.6669921875	1204.451293945312	-125.4748077392578	310.0333251953125	1137.480590820312	109.9601898193359	302.3532104492188	1385.941284179688	69.81181335449219	335.6464538574219	1329.656616210938	-82.55844116210938	356.0577697753906	1246.198608398438	128.5188751220703	199.2405090332031	1349.939575195312	63.63064193725586	160.4184875488281	1368.4580078125	-30.49712944030762	88.67670440673828	1249.392944335938	-37.97551727294922	77.57955932617188	1054.514526367188	-102.3554229736328	110.4945526123047	1022.039428710938	-29.49252510070801	190.8043365478516	893.8466796875	-266.476806640625	130.1260986328125	860.3980712890625	-260.1536254882812	88.90998840332031	967.1506958007812	-156.6337890625	227.2892913818359	763.823974609375	-354.4922485351562	148.0419921875	801.427490234375	-291.7460327148438	195.0046539306641	835.7317504882812	-319.7477722167969	471.9056701660156	1369.140014648438	45.01298904418945	526.4517822265625	1305.170654296875	73.88850402832031	561.42626953125	1042.971557617188	113.2830352783203	467.9543762207031	1034.457153320312	110.1380233764648	580.0288696289062	801.7088623046875	31.75263595581055	621.7902221679688	797.9571533203125	96.12651062011719	583.2130737304688	975.7890625	105.1001968383789	589.9688720703125	628.4603271484375	57.03503036499023	601.6234741210938	697.9393920898438	32.69436264038086	624.1019897460938	710.838623046875	96.65077209472656	398.3077697753906	1580.692993164062	50.38326263427734	284.7417907714844	1618.5126953125	-120.2937545776367	384.9808654785156	1620.35986328125	-107.2936019897461	254.7896575927734	1569.38134765625	57.1873893737793	168.9492645263672	899.4686279296875	-6.10969066619873	506.5658874511719	906.102294921875	28.76622009277344	472.9542236328125	944.04443359375	-77.34334564208984	237.586669921875	930.5614013671875	-120.5784606933594	254.0578155517578	443.2342224121094	-48.17681884765625	225.0372314453125	581.5011596679688	-51.92227935791016	270.0405578613281	49.0008659362793	113.6508712768555	260.5651550292969	227.2432556152344	23.53650093078613	395.9021911621094	36.91582489013672	-60.76523590087891	407.9061584472656	24.9685173034668	21.50354385375977	302.0379333496094	42.76448440551758	-6.894161224365234	321.3061828613281	46.04280853271484	169.0013732910156	544.3944702148438	495.3406982421875	-181.4383850097656	542.613525390625	738.0037841796875	-110.4848327636719	570.3839721679688	72.02655792236328	-111.7718963623047	556.1468505859375	374.9240417480469	-190.5322113037109	586.338623046875	66.93062591552734	-308.9010925292969	527.7727661132812	57.61255645751953	-271.0979309082031	621.2933349609375	55.39358139038086	-199.0596008300781	508.7621154785156	74.34244537353516	-79.88530731201172	nan	nan	nan	nan	nan	nan	nan	nan	nan	
157	1.56	400.7777404785156	952.0263671875	95.81740570068359	270.5845336914062	953.9046020507812	84.68290710449219	333.437744140625	1020.261535644531	103.2683029174805	348.0312194824219	1203.192016601562	-133.070556640625	314.4550170898438	1136.333129882812	102.9516754150391	306.2812805175781	1384.654052734375	62.50334930419922	338.3961791992188	1328.399658203125	-90.068359375	360.47705078125	1244.905883789062	120.723762512207	203.1171569824219	1348.642578125	57.06703948974609	163.6368560791016	1367.385864257812	-36.67697143554688	91.89752960205078	1248.28955078125	-44.42358016967773	81.03425598144531	1053.913452148438	-110.6890563964844	114.2017059326172	1020.720153808594	-38.25098037719727	195.0487365722656	896.5618896484375	-277.3583374023438	134.7966613769531	862.3756713867188	-271.2374267578125	92.73571014404297	967.3449096679688	-166.0843353271484	232.6933746337891	768.0145263671875	-367.1514892578125	152.9943237304688	804.0479736328125	-303.7221069335938	199.7157135009766	839.2324829101562	-331.4246215820312	475.6372985839844	1367.88330078125	36.45462799072266	530.34814453125	1304.025634765625	65.14174652099609	564.8931884765625	1042.027954101562	105.6960296630859	471.4013977050781	1033.76513671875	103.1035690307617	582.196533203125	799.69140625	26.49420547485352	624.7014770507812	796.927734375	90.34864807128906	586.4974975585938	974.7894287109375	97.91123199462891	592.0831298828125	626.9384765625	53.75945281982422	603.7115478515625	696.000732421875	28.39585494995117	626.7047119140625	709.6819458007812	92.04608154296875	401.959228515625	1579.328979492188	42.54005432128906	287.5645446777344	1617.249267578125	-127.5523452758789	387.8975219726562	1619.1181640625	-115.0658187866211	258.5281372070312	1567.986938476562	50.05605316162109	172.5596923828125	898.661376953125	-11.1971435546875	510.7388610839844	904.7027587890625	18.2133903503418	476.1677551269531	943.4640502929688	-87.97271728515625	239.5231323242188	929.5809936523438	-126.7714157104492	255.4370727539062	442.4538879394531	-51.78238296508789	226.8495178222656	580.7412719726562	-55.86906433105469	270.7691040039062	49.23097991943359	113.739875793457	261.6774597167969	226.9659881591797	21.88987922668457	395.8793334960938	36.8026123046875	-60.97604370117188	408.4503784179688	25.50143814086914	21.60783004760742	302.2684631347656	42.87353897094727	-6.876571178436279	322.1112976074219	46.6536865234375	169.0319671630859	546.4224243164062	492.81884765625	-191.3731231689453	544.3447265625	736.2667846679688	-120.6115417480469	577.9341430664062	66.91571044921875	-146.2018890380859	559.23583984375	373.5044555664062	-206.5974426269531	588.6607666015625	72.90290069580078	-343.4417724609375	531.1539916992188	61.0296516418457	-304.8128967285156	626.60302734375	55.42555618286133	-235.5674743652344	517.1715698242188	67.08767700195312	-112.5747146606445	nan	nan	nan	nan	nan	nan	nan	nan	nan	
